<?xml version="1.0" encoding="UTF-8" standalone="no"?>
<!-- Created with Inkscape (http://www.inkscape.org/) -->

<svg
   xmlns:dc="http://purl.org/dc/elements/1.1/"
   xmlns:cc="http://creativecommons.org/ns#"
   xmlns:rdf="http://www.w3.org/1999/02/22-rdf-syntax-ns#"
   xmlns:svg="http://www.w3.org/2000/svg"
   xmlns="http://www.w3.org/2000/svg"
   xmlns:sodipodi="http://sodipodi.sourceforge.net/DTD/sodipodi-0.dtd"
   xmlns:inkscape="http://www.inkscape.org/namespaces/inkscape"
   width="4096mm"
   height="4096mm"
   viewBox="0 0 4096 4096"
   version="1.1"
   id="svg731"
   inkscape:export-filename="G:\Users\suitedoalex\sites\senai-logo-0.png"
   inkscape:export-xdpi="25.4"
   inkscape:export-ydpi="25.4"
   sodipodi:docname="senai-logo.svg"
   inkscape:version="0.92.2 (5c3e80d, 2017-08-06)">
  <defs
     id="defs725">
    <clipPath
       clipPathUnits="userSpaceOnUse"
       id="clipPath72">
      <path
         d="m 325.469,664.725 h 227.287 v 34.016 H 325.469 Z"
         id="path70"
         inkscape:connector-curvature="0" />
    </clipPath>
  </defs>
  <sodipodi:namedview
     id="base"
     pagecolor="#ffffff"
     bordercolor="#666666"
     borderopacity="1.0"
     inkscape:pageopacity="0.0"
     inkscape:pageshadow="2"
     inkscape:zoom="0.0109375"
     inkscape:cx="10940.155"
     inkscape:cy="14100.589"
     inkscape:document-units="mm"
     inkscape:current-layer="layer1"
     showgrid="false"
     inkscape:window-width="1600"
     inkscape:window-height="837"
     inkscape:window-x="-8"
     inkscape:window-y="-8"
     inkscape:window-maximized="1" />
  <metadata
     id="metadata728">
    <rdf:RDF>
      <cc:Work
         rdf:about="">
        <dc:format>image/svg+xml</dc:format>
        <dc:type
           rdf:resource="http://purl.org/dc/dcmitype/StillImage" />
        <dc:title></dc:title>
      </cc:Work>
    </rdf:RDF>
  </metadata>
  <g
     inkscape:label="Layer 1"
     inkscape:groupmode="layer"
     id="layer1"
     transform="translate(0,3799)">
    <rect
       style="fill:#005caa;fill-opacity:1;fill-rule:evenodd;stroke-width:178.02679443"
       id="rect246-1-2"
       width="3633.8877"
       height="931.60901"
       x="231.05614"
       y="-2216.8044"
       inkscape:export-filename="G:\Users\suitedoalex\sites\senai-logo-7.png"
       inkscape:export-xdpi="4.8928313"
       inkscape:export-ydpi="4.8928313" />
    <g
       id="g74-6-4-0-5-8"
       transform="matrix(20.187964,0,0,-20.187964,1125.3978,-1886.1282)"
       style="fill:#ffffff"
       inkscape:export-filename="G:\Users\suitedoalex\sites\senai-logo-7.png"
       inkscape:export-xdpi="4.8928313"
       inkscape:export-ydpi="4.8928313">
      <path
         d="m 0,0 c 2.193,7.812 -4.168,10.192 -10.858,10.192 -6.779,0 -13.963,-2.111 -15.953,-9.788 -0.741,-3.502 0.239,-6.465 3.21,-7.902 6.39,-3.098 13.237,-2.155 12.302,-6.555 -0.457,-2.155 -3.33,-3.233 -5.403,-3.233 -3.233,0 -5.118,1.662 -4.43,4.715 h -8.979 c -1.736,-8.8 4.445,-11.008 11.988,-11.008 7.497,0 14.92,3.24 16.372,10.065 1.856,8.755 -5.926,9.294 -11.067,10.685 -2.245,0.629 -4.954,1.392 -4.452,3.772 0.344,1.616 2.424,2.963 4.489,2.963 1.527,0 2.619,-0.359 3.24,-1.033 C -8.875,2.2 -8.673,1.257 -8.979,0 Z m 25.973,-22.898 1.34,6.286 H 11.599 l 1.459,6.869 h 14.457 l 1.332,6.286 H 14.39 l 1.421,6.69 h 15.715 l 1.339,6.285 H 8.171 L 1.28,-22.898 Z m 5.074,0 h 8.081 l 5.276,24.829 h 0.089 l 5.725,-24.829 H 62.654 L 69.546,9.518 H 61.465 L 56.346,-14.547 56.241,-14.637 50.51,9.518 H 37.938 Z m 43.909,0 3.457,6.331 h 13.155 l 0.808,-6.331 h 10.147 L 96.619,9.518 H 85.664 L 65.977,-22.898 Z m 7.079,12.617 7.266,13.469 h 0.135 L 90.7,-10.281 Z m 32.88,-12.617 6.892,32.416 h -8.98 l -6.891,-32.416 z"
         style="fill:#ffffff;fill-opacity:1;fill-rule:evenodd;stroke:none"
         id="path76-1-9-8-0-9"
         inkscape:connector-curvature="0" />
    </g>
    <path
       d="m 231.05614,-1760.7164 h 190.41983 v 19.4525 H 231.05614 Z"
       style="fill:#ffffff;fill-opacity:1;fill-rule:evenodd;stroke:none;stroke-width:10.31414127"
       id="path78-5-8-5-3-2-6"
       inkscape:connector-curvature="0"
       inkscape:export-filename="G:\Users\suitedoalex\sites\senai-logo-7.png"
       inkscape:export-xdpi="4.8928313"
       inkscape:export-ydpi="4.8928313" />
    <path
       d="m 231.05614,-1918.2418 h 190.41983 v 19.4525 H 231.05614 Z"
       style="fill:#ffffff;fill-opacity:1;fill-rule:evenodd;stroke:none;stroke-width:10.31414127"
       id="path80-4-6-9-0-8-0"
       inkscape:connector-curvature="0"
       inkscape:export-filename="G:\Users\suitedoalex\sites\senai-logo-7.png"
       inkscape:export-xdpi="4.8928313"
       inkscape:export-ydpi="4.8928313" />
    <path
       d="m 231.05614,-2075.7474 h 190.41983 v 19.4525 H 231.05614 Z"
       style="fill:#ffffff;fill-opacity:1;fill-rule:evenodd;stroke:none;stroke-width:10.31414127"
       id="path82-2-7-1-3-7-8"
       inkscape:connector-curvature="0"
       inkscape:export-filename="G:\Users\suitedoalex\sites\senai-logo-7.png"
       inkscape:export-xdpi="4.8928313"
       inkscape:export-ydpi="4.8928313" />
    <path
       d="m 231.05614,-1603.2108 h 190.41983 v 19.4526 H 231.05614 Z"
       style="fill:#ffffff;fill-opacity:1;fill-rule:evenodd;stroke:none;stroke-width:10.31414127"
       id="path84-3-4-3-1-5-9"
       inkscape:connector-curvature="0"
       inkscape:export-filename="G:\Users\suitedoalex\sites\senai-logo-7.png"
       inkscape:export-xdpi="4.8928313"
       inkscape:export-ydpi="4.8928313" />
    <path
       d="m 231.05614,-1445.7052 h 190.41983 v 19.4525 H 231.05614 Z"
       style="fill:#ffffff;fill-opacity:1;fill-rule:evenodd;stroke:none;stroke-width:10.31414127"
       id="path86-5-3-4-9-4-6"
       inkscape:connector-curvature="0"
       inkscape:export-filename="G:\Users\suitedoalex\sites\senai-logo-7.png"
       inkscape:export-xdpi="4.8928313"
       inkscape:export-ydpi="4.8928313" />
    <path
       d="m 3674.5241,-1760.7164 h 190.4198 v 19.4525 h -190.4198 z"
       style="fill:#ffffff;fill-opacity:1;fill-rule:evenodd;stroke:none;stroke-width:10.31414127"
       id="path78-5-8-5-3-2-6-4"
       inkscape:connector-curvature="0"
       inkscape:export-filename="G:\Users\suitedoalex\sites\senai-logo-7.png"
       inkscape:export-xdpi="4.8928313"
       inkscape:export-ydpi="4.8928313" />
    <path
       d="m 3674.5241,-1918.2418 h 190.4198 v 19.4525 h -190.4198 z"
       style="fill:#ffffff;fill-opacity:1;fill-rule:evenodd;stroke:none;stroke-width:10.31414127"
       id="path80-4-6-9-0-8-0-2"
       inkscape:connector-curvature="0"
       inkscape:export-filename="G:\Users\suitedoalex\sites\senai-logo-7.png"
       inkscape:export-xdpi="4.8928313"
       inkscape:export-ydpi="4.8928313" />
    <path
       d="m 3674.5241,-2075.7474 h 190.4198 v 19.4525 h -190.4198 z"
       style="fill:#ffffff;fill-opacity:1;fill-rule:evenodd;stroke:none;stroke-width:10.31414127"
       id="path82-2-7-1-3-7-8-3"
       inkscape:connector-curvature="0"
       inkscape:export-filename="G:\Users\suitedoalex\sites\senai-logo-7.png"
       inkscape:export-xdpi="4.8928313"
       inkscape:export-ydpi="4.8928313" />
    <path
       d="m 3674.5241,-1603.2108 h 190.4198 v 19.4526 h -190.4198 z"
       style="fill:#ffffff;fill-opacity:1;fill-rule:evenodd;stroke:none;stroke-width:10.31414127"
       id="path84-3-4-3-1-5-9-7"
       inkscape:connector-curvature="0"
       inkscape:export-filename="G:\Users\suitedoalex\sites\senai-logo-7.png"
       inkscape:export-xdpi="4.8928313"
       inkscape:export-ydpi="4.8928313" />
    <path
       d="m 3674.5241,-1445.7052 h 190.4198 v 19.4525 h -190.4198 z"
       style="fill:#ffffff;fill-opacity:1;fill-rule:evenodd;stroke:none;stroke-width:10.31414127"
       id="path86-5-3-4-9-4-6-3"
       inkscape:connector-curvature="0"
       inkscape:export-filename="G:\Users\suitedoalex\sites\senai-logo-7.png"
       inkscape:export-xdpi="4.8928313"
       inkscape:export-ydpi="4.8928313" />
    <rect
       style="fill:#ff0000;fill-rule:evenodd;stroke-width:275.72937012"
       id="rect246-1-2-6"
       width="5628.1948"
       height="1442.8835"
       x="5120.7764"
       y="-2580.6907" />
    <g
       id="g74-6-4-0-5-8-8"
       transform="matrix(31.267283,0,0,-31.267283,6505.9407,-2068.5363)"
       style="fill:#ffffff">
      <path
         d="m 0,0 c 2.193,7.812 -4.168,10.192 -10.858,10.192 -6.779,0 -13.963,-2.111 -15.953,-9.788 -0.741,-3.502 0.239,-6.465 3.21,-7.902 6.39,-3.098 13.237,-2.155 12.302,-6.555 -0.457,-2.155 -3.33,-3.233 -5.403,-3.233 -3.233,0 -5.118,1.662 -4.43,4.715 h -8.979 c -1.736,-8.8 4.445,-11.008 11.988,-11.008 7.497,0 14.92,3.24 16.372,10.065 1.856,8.755 -5.926,9.294 -11.067,10.685 -2.245,0.629 -4.954,1.392 -4.452,3.772 0.344,1.616 2.424,2.963 4.489,2.963 1.527,0 2.619,-0.359 3.24,-1.033 C -8.875,2.2 -8.673,1.257 -8.979,0 Z m 25.973,-22.898 1.34,6.286 H 11.599 l 1.459,6.869 h 14.457 l 1.332,6.286 H 14.39 l 1.421,6.69 h 15.715 l 1.339,6.285 H 8.171 L 1.28,-22.898 Z m 5.074,0 h 8.081 l 5.276,24.829 h 0.089 l 5.725,-24.829 H 62.654 L 69.546,9.518 H 61.465 L 56.346,-14.547 56.241,-14.637 50.51,9.518 H 37.938 Z m 43.909,0 3.457,6.331 h 13.155 l 0.808,-6.331 h 10.147 L 96.619,9.518 H 85.664 L 65.977,-22.898 Z m 7.079,12.617 7.266,13.469 h 0.135 L 90.7,-10.281 Z m 32.88,-12.617 6.892,32.416 h -8.98 l -6.891,-32.416 z"
         style="fill:#ffffff;fill-opacity:1;fill-rule:evenodd;stroke:none"
         id="path76-1-9-8-0-9-7"
         inkscape:connector-curvature="0" />
    </g>
    <path
       d="M 5120.7757,-1874.2974 H 5415.7 v 30.1281 h -294.9243 z"
       style="fill:#ffffff;fill-opacity:1;fill-rule:evenodd;stroke:none;stroke-width:15.97462559"
       id="path78-5-8-5-3-2-6-6"
       inkscape:connector-curvature="0" />
    <path
       d="M 5120.7757,-2118.2741 H 5415.7 v 30.1283 h -294.9243 z"
       style="fill:#ffffff;fill-opacity:1;fill-rule:evenodd;stroke:none;stroke-width:15.97462559"
       id="path80-4-6-9-0-8-0-3"
       inkscape:connector-curvature="0" />
    <path
       d="M 5120.7757,-2362.22 H 5415.7 v 30.1283 h -294.9243 z"
       style="fill:#ffffff;fill-opacity:1;fill-rule:evenodd;stroke:none;stroke-width:15.97462559"
       id="path82-2-7-1-3-7-8-9"
       inkscape:connector-curvature="0" />
    <path
       d="M 5120.7757,-1630.3515 H 5415.7 v 30.1286 h -294.9243 z"
       style="fill:#ffffff;fill-opacity:1;fill-rule:evenodd;stroke:none;stroke-width:15.97462559"
       id="path84-3-4-3-1-5-9-5"
       inkscape:connector-curvature="0" />
    <path
       d="M 5120.7757,-1386.4053 H 5415.7 v 30.128 h -294.9243 z"
       style="fill:#ffffff;fill-opacity:1;fill-rule:evenodd;stroke:none;stroke-width:15.97462559"
       id="path86-5-3-4-9-4-6-9"
       inkscape:connector-curvature="0" />
    <path
       d="m 10454.047,-1874.2974 h 294.924 v 30.1281 h -294.924 z"
       style="fill:#ffffff;fill-opacity:1;fill-rule:evenodd;stroke:none;stroke-width:15.97462559"
       id="path78-5-8-5-3-2-6-4-7"
       inkscape:connector-curvature="0" />
    <path
       d="m 10454.047,-2118.2741 h 294.924 v 30.1283 h -294.924 z"
       style="fill:#ffffff;fill-opacity:1;fill-rule:evenodd;stroke:none;stroke-width:15.97462559"
       id="path80-4-6-9-0-8-0-2-1"
       inkscape:connector-curvature="0" />
    <path
       d="m 10454.047,-2362.22 h 294.924 v 30.1283 h -294.924 z"
       style="fill:#ffffff;fill-opacity:1;fill-rule:evenodd;stroke:none;stroke-width:15.97462559"
       id="path82-2-7-1-3-7-8-3-3"
       inkscape:connector-curvature="0" />
    <path
       d="m 10454.047,-1630.3515 h 294.924 v 30.1286 h -294.924 z"
       style="fill:#ffffff;fill-opacity:1;fill-rule:evenodd;stroke:none;stroke-width:15.97462559"
       id="path84-3-4-3-1-5-9-7-2"
       inkscape:connector-curvature="0" />
    <path
       d="m 10454.047,-1386.4053 h 294.924 v 30.128 h -294.924 z"
       style="fill:#ffffff;fill-opacity:1;fill-rule:evenodd;stroke:none;stroke-width:15.97462559"
       id="path86-5-3-4-9-4-6-3-0"
       inkscape:connector-curvature="0" />
  </g>
</svg>
