<svg width="111" height="40" viewBox="0 0 111 40" fill="none" xmlns="http://www.w3.org/2000/svg">
<path d="M94.6307 34.2202H87.3174L92.9308 5.78538H100.244L94.6307 34.2202ZM86.3558 14.1354H79.0424C79.2916 13.0317 79.1264 12.206 78.5855 11.6152C78.0796 11.0231 77.1889 10.7089 75.946 10.7089C74.268 10.7089 72.5694 11.8905 72.2893 13.3083C71.8801 15.3934 74.086 16.0648 75.915 16.6166C80.1021 17.8371 86.4397 18.3083 84.9282 25.9897C83.7472 31.9739 77.7001 34.8165 71.5936 34.8165C67.076 34.8165 63.1508 33.767 61.9595 30.1334C61.5335 28.831 61.4587 27.1977 61.8304 25.1626H69.1438C68.5836 27.8399 70.1196 29.298 72.7578 29.298C74.4474 29.298 76.7875 28.3514 77.1593 26.4609C77.9208 22.6022 72.3435 23.4279 67.1405 20.7117C64.7204 19.4523 63.9214 16.8515 64.5255 13.7795C66.1466 7.04754 71.9963 5.196 77.5181 5.196C82.9676 5.196 88.1486 7.28107 86.3623 14.1354H86.3558ZM59.0514 17.1629L57.9659 22.6758H46.1918L45.003 28.7003H57.802L56.7113 34.2146H36.5977L42.2124 5.78538H62.3248L61.9543 7.65638L61.2341 11.2997H48.4338L47.2721 17.1671L59.0514 17.1629ZM35.5599 14.1312H28.2427C28.4918 13.0275 28.3279 12.2018 27.7858 11.6111C27.2798 11.0189 26.3905 10.7048 25.1475 10.7048C23.4695 10.7048 21.7709 11.8863 21.4896 13.3041C21.0817 15.3892 23.2876 16.0606 25.1165 16.6125C29.3024 17.8329 35.6412 18.3041 34.1298 25.9855C32.9475 31.9697 26.9016 34.8123 20.7951 34.8123C14.6512 34.8123 9.6173 32.876 11.0307 25.1585H18.3453C17.7838 27.8357 19.3211 29.2939 21.9529 29.2939C23.6412 29.2939 25.9813 28.3472 26.3518 26.4568C27.1146 22.598 21.5386 23.4237 16.333 20.7075C13.9142 19.4482 13.1152 16.8474 13.7193 13.7754C15.3392 7.04337 21.1914 5.19183 26.7132 5.19183C32.1614 5.19183 37.3424 7.2769 35.5561 14.1312H35.5599ZM102.992 6.87656V5.82291H110.478V0H0.220703V5.82569H7.70701V6.87656H0.220703V12.541H7.70701V13.5947H0.220703V19.4329H7.70701V20.499H0.220703V26.4345H7.70701V27.4882H0.220703V33.1749H7.70701V34.2285H0.220703V40H110.48V34.223H102.993V33.1693H110.48V27.4826H102.993V26.429H110.48V20.499H102.993V19.4454H110.48V13.6072H102.993V12.5535H110.48V6.87656H102.992Z" fill="#1E984F"/>
</svg>
